<mxfile host="app.diagrams.net" modified="2020-10-02T02:19:25.702Z" agent="5.0 (Windows NT 10.0; Win64; x64) AppleWebKit/537.36 (KHTML, like Gecko) Chrome/85.0.4183.121 Safari/537.36" etag="tdGXds8wFQvqyBKLHIfB" version="13.7.7" type="github" pages="3">
  <diagram id="JqVoAIHV30kjXa5EEuhg" name="Page-1">
    <mxGraphModel dx="1673" dy="896" grid="1" gridSize="10" guides="1" tooltips="1" connect="1" arrows="1" fold="1" page="1" pageScale="1" pageWidth="1169" pageHeight="827" math="0" shadow="0">
      <root>
        <mxCell id="0" />
        <mxCell id="1" parent="0" />
      </root>
    </mxGraphModel>
  </diagram>
  <diagram id="Kb3rgCPW_DCvP366yY8j" name="Page-2">
    <mxGraphModel dx="1422" dy="762" grid="1" gridSize="10" guides="1" tooltips="1" connect="1" arrows="1" fold="1" page="1" pageScale="1" pageWidth="1169" pageHeight="827" math="0" shadow="0">
      <root>
        <mxCell id="SWLh6Wv1GNfHvKQYHEIi-0" />
        <mxCell id="SWLh6Wv1GNfHvKQYHEIi-1" parent="SWLh6Wv1GNfHvKQYHEIi-0" />
      </root>
    </mxGraphModel>
  </diagram>
  <diagram id="fsUKB5eA3BV8NQuZ_sgM" name="Page-3">
    <mxGraphModel dx="1422" dy="762" grid="1" gridSize="10" guides="1" tooltips="1" connect="1" arrows="1" fold="1" page="1" pageScale="1" pageWidth="1169" pageHeight="827" math="0" shadow="0">
      <root>
        <mxCell id="-gvWSLJ8ITPgGkxJedhl-0" />
        <mxCell id="-gvWSLJ8ITPgGkxJedhl-1" parent="-gvWSLJ8ITPgGkxJedhl-0" />
      </root>
    </mxGraphModel>
  </diagram>
</mxfile>
